<?xml version="1.0" encoding="UTF-8" ?>
<!DOCTYPE svg PUBLIC "-//W3C//DTD SVG 1.1//EN" "http://www.w3.org/Graphics/SVG/1.1/DTD/svg11.dtd">
<svg width="266pt" height="266pt" viewBox="0 0 266 266" version="1.1" xmlns="http://www.w3.org/2000/svg">
<path fill="#828282" d=" M 0.00 0.00 L 266.00 0.00 L 266.00 266.00 L 244.97 266.00 C 244.98 264.21 244.99 262.43 245.00 260.65 C 250.26 260.91 255.53 260.81 260.79 260.75 C 261.06 210.80 260.96 160.85 260.70 110.90 C 253.03 117.87 246.07 125.58 238.27 132.42 C 234.75 130.29 231.45 126.94 227.05 127.09 C 220.37 127.27 213.76 125.21 207.09 126.27 C 200.44 127.29 193.70 127.00 186.99 127.05 C 179.96 126.99 172.89 127.43 165.91 126.39 C 160.53 125.96 155.31 124.58 149.97 123.85 C 157.11 117.93 164.05 111.72 170.43 104.99 C 157.53 104.67 144.62 105.07 131.72 104.77 C 133.46 103.13 135.30 101.60 137.21 100.16 C 135.84 101.48 134.53 102.85 133.19 104.20 C 145.59 104.78 158.02 104.20 170.43 104.54 C 171.84 107.78 173.56 110.86 175.33 113.92 C 180.28 114.89 185.16 113.14 190.11 113.10 C 188.70 113.47 187.33 113.99 185.94 114.43 C 193.84 115.93 201.80 118.02 209.91 117.16 C 214.59 117.01 218.91 115.07 223.11 113.20 C 235.67 107.69 243.55 95.69 251.49 85.09 C 246.58 85.18 241.10 84.63 236.96 87.82 C 230.27 92.32 224.89 100.44 216.00 100.19 C 203.48 99.87 190.93 100.48 178.45 99.35 C 181.12 98.00 184.18 98.65 187.04 98.55 C 198.80 98.78 210.60 98.48 222.21 96.46 C 209.30 94.11 196.12 94.48 183.07 94.97 C 176.04 95.38 169.00 96.13 161.95 95.99 C 156.56 95.86 151.46 93.97 146.27 92.71 C 151.43 89.05 156.78 85.64 161.74 81.70 C 162.46 84.06 163.19 86.42 163.95 88.78 C 180.00 88.73 196.05 88.75 212.09 88.82 C 214.69 69.27 214.37 49.46 212.56 29.86 C 209.65 30.87 206.78 31.98 203.82 32.84 C 201.66 33.26 199.46 33.42 197.29 33.65 C 198.96 33.28 200.60 32.76 202.29 32.39 C 190.85 31.94 179.46 30.39 167.99 30.94 C 158.27 30.49 148.59 31.60 138.92 32.50 C 136.10 49.81 138.07 67.49 140.73 84.70 C 137.39 87.40 134.14 90.21 130.77 92.87 C 129.35 92.22 127.94 91.58 126.55 90.89 C 129.31 87.97 133.45 85.45 133.86 81.09 C 134.46 63.09 133.66 45.09 133.84 27.08 C 139.54 26.73 145.24 27.11 150.95 27.20 C 169.62 27.19 188.29 27.18 206.97 27.21 C 216.78 26.68 222.83 17.81 229.29 11.56 C 210.51 11.25 191.74 11.50 172.96 11.49 C 162.37 11.82 151.65 11.83 141.27 9.43 C 140.10 9.07 138.95 8.67 137.82 8.23 C 131.94 5.36 125.33 4.89 118.92 4.36 C 111.30 4.09 103.67 4.19 96.05 4.53 C 71.38 4.61 46.72 4.59 22.04 4.54 C 16.13 4.27 10.21 4.12 4.28 4.30 C 4.25 15.88 4.03 27.46 4.55 39.02 C 4.60 102.02 4.48 165.01 4.61 228.01 C 9.77 224.04 14.60 219.65 19.90 215.86 C 21.72 214.47 23.90 213.19 24.58 210.85 C 24.96 215.88 25.83 220.85 26.25 225.88 C 37.48 226.40 48.77 225.46 59.93 227.00 C 64.64 227.30 69.28 226.05 73.99 226.10 C 84.32 226.13 94.65 226.19 104.98 226.10 C 111.13 226.07 117.21 227.15 123.33 227.61 C 118.91 228.29 114.48 229.09 109.99 229.05 C 90.31 229.05 70.63 229.05 50.95 229.05 C 36.98 229.27 22.83 225.48 9.07 229.39 C 9.96 236.24 10.86 243.21 9.77 250.09 C 9.14 254.06 6.98 257.53 5.01 260.96 C 6.41 260.39 7.81 259.85 9.21 259.28 C 10.73 259.59 12.25 259.87 13.78 260.14 C 16.45 261.96 18.86 264.12 21.49 266.00 L 0.00 266.00 L 0.00 0.00 Z" />
<path fill="#f9f9f9" d=" M 4.28 4.30 C 10.21 4.12 16.13 4.27 22.04 4.54 C 46.72 4.59 71.38 4.61 96.05 4.53 C 103.67 4.19 111.30 4.09 118.92 4.36 C 125.33 4.89 131.94 5.36 137.82 8.23 C 132.33 13.26 125.60 17.53 122.40 24.52 C 120.34 28.76 121.59 33.49 122.00 37.94 C 123.75 53.32 120.71 68.70 121.23 84.10 C 112.62 88.39 105.42 95.44 100.17 103.45 C 100.11 107.17 100.15 110.91 99.66 114.62 C 101.18 115.12 102.56 114.30 103.75 113.42 C 103.28 114.08 102.84 114.75 102.40 115.44 C 101.27 115.87 100.14 116.31 99.01 116.76 C 98.81 116.46 98.40 115.86 98.20 115.56 C 93.89 117.94 89.39 119.97 85.17 122.50 C 87.35 125.45 89.27 128.59 91.19 131.71 C 76.41 133.26 61.50 130.74 46.77 133.01 C 44.92 133.25 43.09 133.64 41.26 133.99 C 41.28 134.48 41.31 135.46 41.32 135.94 L 40.68 134.37 C 35.90 139.37 30.97 144.29 27.04 150.01 C 25.29 152.27 25.52 155.26 25.22 157.95 C 24.05 175.57 25.77 193.22 24.58 210.85 C 23.90 213.19 21.72 214.47 19.90 215.86 C 14.60 219.65 9.77 224.04 4.61 228.01 C 4.48 165.01 4.60 102.02 4.55 39.02 C 4.03 27.46 4.25 15.88 4.28 4.30 Z" />
<path fill="#000002" d=" M 138.81 5.65 C 169.96 3.44 201.19 5.28 232.38 4.68 C 232.35 5.57 232.28 7.37 232.25 8.26 C 225.82 8.26 219.39 8.46 212.98 7.89 C 204.66 7.82 196.33 7.88 188.01 7.86 C 177.03 8.64 166.01 8.12 155.01 8.30 C 149.56 8.08 143.90 7.80 138.81 5.65 Z" />
<path fill="#f9f9f9" d=" M 237.16 4.47 C 245.04 4.58 252.92 4.42 260.81 4.55 C 260.59 31.00 260.66 57.45 260.76 83.90 C 258.88 82.90 257.01 81.88 255.05 81.06 C 250.47 79.04 245.56 77.99 240.70 76.92 C 239.53 55.59 242.04 34.14 239.30 12.89 C 238.64 10.07 237.84 7.28 237.16 4.47 Z" />
<path fill="#000002" d=" M 122.40 24.52 C 125.60 17.53 132.33 13.26 137.82 8.23 C 138.95 8.67 140.10 9.07 141.27 9.43 C 136.75 13.25 131.22 15.86 127.39 20.47 C 124.94 23.03 126.18 26.86 125.87 30.02 C 125.22 50.24 125.66 70.47 126.18 90.68 L 126.55 90.89 C 127.94 91.58 129.35 92.22 130.77 92.87 C 127.61 95.40 124.41 97.88 121.30 100.46 C 121.20 95.00 121.69 89.54 121.23 84.10 C 120.71 68.70 123.75 53.32 122.00 37.94 C 121.59 33.49 120.34 28.76 122.40 24.52 Z" />
<path fill="#f9f9f9" d=" M 141.27 9.43 C 151.65 11.83 162.37 11.82 172.96 11.49 C 191.74 11.50 210.51 11.25 229.29 11.56 C 222.83 17.81 216.78 26.68 206.97 27.21 C 188.29 27.18 169.62 27.19 150.95 27.20 C 145.24 27.11 139.54 26.73 133.84 27.08 C 133.66 45.09 134.46 63.09 133.86 81.09 C 133.45 85.45 129.31 87.97 126.55 90.89 L 126.18 90.68 C 125.66 70.47 125.22 50.24 125.87 30.02 C 126.18 26.86 124.94 23.03 127.39 20.47 C 131.22 15.86 136.75 13.25 141.27 9.43 Z" />
<path fill="#5d5d5d" d=" M 234.03 10.87 C 235.79 11.52 237.55 12.19 239.30 12.89 C 242.04 34.14 239.53 55.59 240.70 76.92 C 245.56 77.99 250.47 79.04 255.05 81.06 L 255.78 82.22 C 248.32 83.15 240.73 83.23 233.23 82.71 C 233.14 65.45 233.12 48.20 233.16 30.94 C 233.25 24.25 233.25 17.53 234.03 10.87 Z" />
<path fill="#f9f9f9" d=" M 203.82 32.84 C 206.78 31.98 209.65 30.87 212.56 29.86 C 214.37 49.46 214.69 69.27 212.09 88.82 C 196.05 88.75 180.00 88.73 163.95 88.78 C 163.19 86.42 162.46 84.06 161.74 81.70 C 166.07 78.12 169.68 73.74 174.08 70.23 C 171.44 72.67 168.76 75.10 166.67 78.05 C 179.75 78.29 192.82 78.09 205.90 78.16 C 205.87 62.88 205.45 47.57 206.67 32.32 C 205.96 32.45 204.53 32.71 203.82 32.84 Z" />
<path fill="#000002" d=" M 138.92 32.50 C 148.59 31.60 158.27 30.49 167.99 30.94 C 179.46 30.39 190.85 31.94 202.29 32.39 C 200.60 32.76 198.96 33.28 197.29 33.65 C 196.79 33.73 195.79 33.88 195.30 33.95 C 177.23 35.78 159.08 34.21 140.98 34.69 C 140.98 49.29 141.31 63.89 141.32 78.49 L 141.60 78.94 L 142.64 79.20 C 144.09 79.56 145.55 79.91 147.01 80.25 C 144.88 81.67 142.76 83.12 140.73 84.70 C 138.07 67.49 136.10 49.81 138.92 32.50 Z" />
<path fill="#0e24fc" d=" M 197.29 33.65 C 199.46 33.42 201.66 33.26 203.82 32.84 C 204.53 32.71 205.96 32.45 206.67 32.32 C 205.45 47.57 205.87 62.88 205.90 78.16 C 192.82 78.09 179.75 78.29 166.67 78.05 C 168.76 75.10 171.44 72.67 174.08 70.23 C 180.68 64.53 187.28 57.85 189.13 48.99 C 183.67 51.17 178.75 54.47 174.41 58.42 C 166.01 65.53 156.49 71.24 148.48 78.83 C 146.99 80.68 144.56 79.26 142.64 79.20 L 141.60 78.94 C 141.41 64.25 141.58 49.55 141.55 34.86 C 148.70 34.74 155.85 34.89 163.01 34.82 C 167.84 34.71 172.64 35.77 177.47 35.24 C 183.40 34.56 189.42 35.18 195.30 33.95 C 195.79 33.88 196.79 33.73 197.29 33.65 Z" />
<path fill="#828282" d=" M 140.98 34.69 C 159.08 34.21 177.23 35.78 195.30 33.95 C 189.42 35.18 183.40 34.56 177.47 35.24 C 172.64 35.77 167.84 34.71 163.01 34.82 C 155.85 34.89 148.70 34.74 141.55 34.86 C 141.58 49.55 141.41 64.25 141.60 78.94 L 141.32 78.49 C 141.31 63.89 140.98 49.29 140.98 34.69 Z" />
<path fill="#fefe38" d=" M 174.41 58.42 C 178.75 54.47 183.67 51.17 189.13 48.99 C 187.28 57.85 180.68 64.53 174.08 70.23 C 169.68 73.74 166.07 78.12 161.74 81.70 C 156.78 85.64 151.43 89.05 146.27 92.71 C 143.16 95.09 140.22 97.67 137.21 100.16 C 135.30 101.60 133.46 103.13 131.72 104.77 C 144.62 105.07 157.53 104.67 170.43 104.99 C 164.05 111.72 157.11 117.93 149.97 123.85 C 136.94 135.00 121.90 143.62 109.49 155.53 C 107.46 157.39 105.71 159.54 104.08 161.75 C 91.73 167.12 83.68 179.11 70.95 183.75 C 72.98 175.88 78.75 169.84 84.57 164.52 C 86.01 163.19 87.49 161.92 88.99 160.66 C 93.42 156.97 97.67 153.06 101.98 149.22 C 110.22 141.92 119.70 136.17 127.91 128.83 C 116.75 128.63 105.57 129.14 94.41 128.47 C 92.51 127.15 90.85 125.48 90.48 123.08 C 93.40 121.09 96.21 118.92 99.01 116.76 C 100.14 116.31 101.27 115.87 102.40 115.44 C 102.84 114.75 103.28 114.08 103.75 113.42 C 105.46 112.22 107.17 111.03 108.86 109.81 C 113.01 106.69 117.31 103.78 121.30 100.46 C 124.41 97.88 127.61 95.40 130.77 92.87 C 134.14 90.21 137.39 87.40 140.73 84.70 C 142.76 83.12 144.88 81.67 147.01 80.25 C 145.55 79.91 144.09 79.56 142.64 79.20 C 144.56 79.26 146.99 80.68 148.48 78.83 C 156.49 71.24 166.01 65.53 174.41 58.42 Z" />
<path fill="#828282" d=" M 100.17 103.45 C 105.42 95.44 112.62 88.39 121.23 84.10 C 121.69 89.54 121.20 95.00 121.30 100.46 C 117.31 103.78 113.01 106.69 108.86 109.81 C 105.91 107.76 102.99 105.66 100.17 103.45 Z" />
<path fill="#f9f9f9" d=" M 236.96 87.82 C 241.10 84.63 246.58 85.18 251.49 85.09 C 243.55 95.69 235.67 107.69 223.11 113.20 C 212.11 112.72 201.10 112.18 190.11 113.10 C 185.16 113.14 180.28 114.89 175.33 113.92 C 173.56 110.86 171.84 107.78 170.43 104.54 C 169.66 102.86 168.87 101.20 168.05 99.55 C 171.51 99.38 174.98 99.29 178.45 99.35 C 190.93 100.48 203.48 99.87 216.00 100.19 C 224.89 100.44 230.27 92.32 236.96 87.82 Z" />
<path fill="#000002" d=" M 259.57 110.88 C 255.60 102.85 254.52 92.44 259.88 84.79 C 261.20 93.37 261.73 102.41 259.57 110.88 Z" />
<path fill="#000002" d=" M 137.21 100.16 C 140.22 97.67 143.16 95.09 146.27 92.71 C 151.46 93.97 156.56 95.86 161.95 95.99 C 169.00 96.13 176.04 95.38 183.07 94.97 C 196.12 94.48 209.30 94.11 222.21 96.46 C 210.60 98.48 198.80 98.78 187.04 98.55 C 184.18 98.65 181.12 98.00 178.45 99.35 C 174.98 99.29 171.51 99.38 168.05 99.55 C 168.87 101.20 169.66 102.86 170.43 104.54 C 158.02 104.20 145.59 104.78 133.19 104.20 C 134.53 102.85 135.84 101.48 137.21 100.16 Z" />
<path fill="#000002" d=" M 100.17 103.45 C 102.99 105.66 105.91 107.76 108.86 109.81 C 107.17 111.03 105.46 112.22 103.75 113.42 C 102.56 114.30 101.18 115.12 99.66 114.62 C 100.15 110.91 100.11 107.17 100.17 103.45 Z" />
<path fill="#f9f9f9" d=" M 238.27 132.42 C 246.07 125.58 253.03 117.87 260.70 110.90 C 260.96 160.85 261.06 210.80 260.79 260.75 C 255.53 260.81 250.26 260.91 245.00 260.65 C 211.06 260.14 177.09 260.99 143.15 260.18 C 149.13 253.83 155.89 248.20 161.36 241.36 C 163.07 239.12 165.05 236.81 165.29 233.87 C 166.06 227.00 166.65 219.64 163.97 213.11 C 159.91 206.42 151.07 206.60 144.26 205.47 C 144.18 188.99 144.85 172.51 144.35 156.04 C 144.03 148.53 144.48 141.01 144.07 133.51 C 175.46 132.79 206.92 135.00 238.27 132.42 Z" />
<path fill="#000002" d=" M 162.56 114.03 C 163.93 113.98 166.01 112.62 166.45 114.80 C 165.86 116.03 165.01 117.06 163.91 117.89 C 163.45 116.61 163.00 115.32 162.56 114.03 Z" />
<path fill="#000002" d=" M 190.11 113.10 C 201.10 112.18 212.11 112.72 223.11 113.20 C 218.91 115.07 214.59 117.01 209.91 117.16 C 201.80 118.02 193.84 115.93 185.94 114.43 C 187.33 113.99 188.70 113.47 190.11 113.10 Z" />
<path fill="#000002" d=" M 98.20 115.56 C 98.40 115.86 98.81 116.46 99.01 116.76 C 96.21 118.92 93.40 121.09 90.48 123.08 C 90.85 125.48 92.51 127.15 94.41 128.47 C 105.57 129.14 116.75 128.63 127.91 128.83 C 119.70 136.17 110.22 141.92 101.98 149.22 C 104.55 145.26 107.42 141.51 110.06 137.60 C 101.54 135.24 92.69 135.01 83.96 134.09 C 71.56 133.75 59.12 134.41 46.77 133.01 C 61.50 130.74 76.41 133.26 91.19 131.71 C 89.27 128.59 87.35 125.45 85.17 122.50 C 89.39 119.97 93.89 117.94 98.20 115.56 Z" />
<path fill="#5d5d5d" d=" M 109.49 155.53 C 121.90 143.62 136.94 135.00 149.97 123.85 C 155.31 124.58 160.53 125.96 165.91 126.39 C 172.89 127.43 179.96 126.99 186.99 127.05 C 193.70 127.00 200.44 127.29 207.09 126.27 C 213.76 125.21 220.37 127.27 227.05 127.09 C 231.45 126.94 234.75 130.29 238.27 132.42 C 206.92 135.00 175.46 132.79 144.07 133.51 C 144.48 141.01 144.03 148.53 144.35 156.04 C 144.85 172.51 144.18 188.99 144.26 205.47 C 151.07 206.60 159.91 206.42 163.97 213.11 C 166.65 219.64 166.06 227.00 165.29 233.87 C 165.05 236.81 163.07 239.12 161.36 241.36 C 155.89 248.20 149.13 253.83 143.15 260.18 C 177.09 260.99 211.06 260.14 245.00 260.65 C 244.99 262.43 244.98 264.21 244.97 266.00 L 21.49 266.00 C 18.86 264.12 16.45 261.96 13.78 260.14 C 36.16 260.09 58.57 261.37 80.95 260.25 C 94.27 261.00 107.62 260.48 120.96 260.63 C 126.41 260.70 131.83 259.58 137.28 260.17 C 138.37 259.10 139.45 258.02 140.52 256.94 C 130.96 256.95 121.40 256.94 111.84 256.82 C 121.79 255.90 131.83 256.35 141.80 256.64 C 146.58 250.17 151.84 244.03 155.94 237.09 C 157.20 234.99 158.25 232.69 158.41 230.21 C 158.61 224.36 159.20 218.54 159.31 212.69 C 154.33 212.25 148.98 211.08 144.27 213.36 C 138.07 216.03 133.75 221.39 128.84 225.79 C 127.42 227.31 125.23 227.27 123.33 227.61 C 117.21 227.15 111.13 226.07 104.98 226.10 C 94.65 226.19 84.32 226.13 73.99 226.10 C 69.28 226.05 64.64 227.30 59.93 227.00 C 48.77 225.46 37.48 226.40 26.25 225.88 C 25.83 220.85 24.96 215.88 24.58 210.85 C 25.77 193.22 24.05 175.57 25.22 157.95 C 25.52 155.26 25.29 152.27 27.04 150.01 C 30.97 144.29 35.90 139.37 40.68 134.37 L 41.32 135.94 C 42.04 137.86 43.18 139.57 44.29 141.27 C 39.85 144.86 34.47 147.25 30.34 151.17 C 30.27 172.88 29.93 194.62 30.57 216.34 C 30.70 217.92 30.83 219.51 30.97 221.10 C 36.89 222.57 43.00 221.92 49.02 222.02 C 57.04 221.85 65.11 222.56 73.08 221.39 C 78.74 220.56 84.34 222.25 90.01 222.07 C 100.70 221.87 111.54 222.77 122.06 220.39 C 128.25 218.67 133.38 213.79 135.87 207.93 C 137.59 204.17 136.92 199.95 137.26 195.97 C 138.52 185.71 137.98 175.35 137.93 165.05 C 136.58 156.97 137.36 148.79 136.99 140.65 C 129.36 145.99 121.67 151.26 114.23 156.87 C 112.69 158.05 111.10 159.16 109.49 160.24 C 107.73 160.89 105.89 161.29 104.08 161.75 C 105.71 159.54 107.46 157.39 109.49 155.53 Z" />
<path fill="#828282" d=" M 41.26 133.99 C 43.09 133.64 44.92 133.25 46.77 133.01 C 59.12 134.41 71.56 133.75 83.96 134.09 C 92.69 135.01 101.54 135.24 110.06 137.60 C 107.42 141.51 104.55 145.26 101.98 149.22 C 97.67 153.06 93.42 156.97 88.99 160.66 C 89.28 160.16 89.87 159.17 90.16 158.67 C 73.77 158.74 57.37 159.27 40.99 158.30 C 41.33 174.45 41.10 190.60 41.87 206.73 L 43.27 206.04 C 42.77 206.52 41.76 207.47 41.26 207.94 C 41.36 210.05 41.46 212.15 41.57 214.27 C 50.02 214.80 58.50 214.68 66.97 214.80 C 83.82 214.79 100.69 215.16 117.51 214.01 C 117.08 194.98 120.77 175.27 114.23 156.87 C 121.67 151.26 129.36 145.99 136.99 140.65 C 137.36 148.79 136.58 156.97 137.93 165.05 C 137.98 175.35 138.52 185.71 137.26 195.97 C 136.92 199.95 137.59 204.17 135.87 207.93 C 133.38 213.79 128.25 218.67 122.06 220.39 C 111.54 222.77 100.70 221.87 90.01 222.07 C 84.34 222.25 78.74 220.56 73.08 221.39 C 65.11 222.56 57.04 221.85 49.02 222.02 C 43.00 221.92 36.89 222.57 30.97 221.10 C 30.83 219.51 30.70 217.92 30.57 216.34 C 33.15 217.21 35.70 218.15 38.23 219.14 C 38.22 197.81 37.65 176.48 37.90 155.15 C 56.16 155.54 74.45 155.53 92.71 154.69 C 95.30 150.22 98.02 145.82 100.70 141.40 C 92.13 140.95 83.57 142.07 75.00 141.71 C 64.76 142.03 54.53 140.88 44.29 141.27 C 43.18 139.57 42.04 137.86 41.32 135.94 C 41.31 135.46 41.28 134.48 41.26 133.99 Z" />
<path fill="#f9f9f9" d=" M 44.29 141.27 C 54.53 140.88 64.76 142.03 75.00 141.71 C 83.57 142.07 92.13 140.95 100.70 141.40 C 98.02 145.82 95.30 150.22 92.71 154.69 C 74.45 155.53 56.16 155.54 37.90 155.15 C 37.65 176.48 38.22 197.81 38.23 219.14 C 35.70 218.15 33.15 217.21 30.57 216.34 C 29.93 194.62 30.27 172.88 30.34 151.17 C 34.47 147.25 39.85 144.86 44.29 141.27 Z" />
<path fill="#f9f9f9" d=" M 109.49 160.24 C 111.10 159.16 112.69 158.05 114.23 156.87 C 120.77 175.27 117.08 194.98 117.51 214.01 C 100.69 215.16 83.82 214.79 66.97 214.80 C 58.50 214.68 50.02 214.80 41.57 214.27 C 41.46 212.15 41.36 210.05 41.26 207.94 C 41.76 207.47 42.77 206.52 43.27 206.04 C 43.51 191.08 42.98 176.11 43.63 161.16 C 56.53 160.44 69.78 159.97 82.25 163.93 C 69.68 160.61 56.60 160.27 43.70 161.33 C 43.40 176.12 43.61 190.91 43.53 205.70 C 45.99 206.00 48.46 206.21 50.94 206.18 C 70.59 206.05 90.24 206.26 109.90 206.06 C 110.24 190.79 110.06 175.50 109.49 160.24 Z" />
<path fill="#000002" d=" M 40.99 158.30 C 57.37 159.27 73.77 158.74 90.16 158.67 C 89.87 159.17 89.28 160.16 88.99 160.66 C 87.49 161.92 86.01 163.19 84.57 164.52 C 83.99 164.37 82.83 164.07 82.25 163.93 C 69.78 159.97 56.53 160.44 43.63 161.16 C 42.98 176.11 43.51 191.08 43.27 206.04 L 41.87 206.73 C 41.10 190.60 41.33 174.45 40.99 158.30 Z" />
<path fill="#0e24fc" d=" M 104.08 161.75 C 105.89 161.29 107.73 160.89 109.49 160.24 C 110.06 175.50 110.24 190.79 109.90 206.06 C 90.24 206.26 70.59 206.05 50.94 206.18 C 48.46 206.21 45.99 206.00 43.53 205.70 C 43.61 190.91 43.40 176.12 43.70 161.33 C 56.60 160.27 69.68 160.61 82.25 163.93 C 82.83 164.07 83.99 164.37 84.57 164.52 C 78.75 169.84 72.98 175.88 70.95 183.75 C 83.68 179.11 91.73 167.12 104.08 161.75 Z" />
<path fill="#f9f9f9" d=" M 144.27 213.36 C 148.98 211.08 154.33 212.25 159.31 212.69 C 159.20 218.54 158.61 224.36 158.41 230.21 C 158.19 224.43 159.06 218.68 158.93 212.90 C 157.89 212.81 155.83 212.63 154.80 212.54 C 148.27 220.72 143.21 230.30 134.76 236.76 C 130.72 240.30 124.97 239.60 120.00 240.25 C 109.49 240.21 98.96 239.88 88.47 240.72 C 79.69 241.98 70.87 243.11 61.99 243.24 C 48.77 243.26 35.55 243.17 22.33 243.20 C 21.39 246.74 20.39 250.28 19.73 253.89 C 19.62 254.43 19.40 255.51 19.29 256.05 C 15.85 256.85 12.46 257.90 9.21 259.28 C 7.81 259.85 6.41 260.39 5.01 260.96 C 6.98 257.53 9.14 254.06 9.77 250.09 C 10.86 243.21 9.96 236.24 9.07 229.39 C 22.83 225.48 36.98 229.27 50.95 229.05 C 70.63 229.05 90.31 229.05 109.99 229.05 C 114.48 229.09 118.91 228.29 123.33 227.61 C 125.23 227.27 127.42 227.31 128.84 225.79 C 133.75 221.39 138.07 216.03 144.27 213.36 Z" />
<path fill="#828282" d=" M 154.80 212.54 C 155.83 212.63 157.89 212.81 158.93 212.90 C 159.06 218.68 158.19 224.43 158.41 230.21 C 158.25 232.69 157.20 234.99 155.94 237.09 C 151.84 244.03 146.58 250.17 141.80 256.64 C 131.83 256.35 121.79 255.90 111.84 256.82 C 81.02 257.13 50.18 257.29 19.38 256.16 C 19.47 255.60 19.64 254.46 19.73 253.89 C 20.39 250.28 21.39 246.74 22.33 243.20 C 35.55 243.17 48.77 243.26 61.99 243.24 C 70.87 243.11 79.69 241.98 88.47 240.72 C 98.96 239.88 109.49 240.21 120.00 240.25 C 124.97 239.60 130.72 240.30 134.76 236.76 C 143.21 230.30 148.27 220.72 154.80 212.54 Z" />
<path fill="#000002" d=" M 5.51 255.44 C 4.08 246.74 3.69 237.65 5.55 229.00 C 6.72 233.24 7.97 237.53 8.07 241.96 C 7.95 246.56 6.67 251.02 5.51 255.44 Z" />
<path fill="#000002" d=" M 89.08 243.88 C 101.16 239.55 115.00 239.05 126.91 244.23 C 114.38 245.67 101.52 246.28 89.08 243.88 Z" />
<path fill="#000002" d=" M 19.29 256.05 C 19.40 255.51 19.62 254.43 19.73 253.89 C 19.64 254.46 19.47 255.60 19.38 256.16 C 50.18 257.29 81.02 257.13 111.84 256.82 C 121.40 256.94 130.96 256.95 140.52 256.94 C 139.45 258.02 138.37 259.10 137.28 260.17 C 131.83 259.58 126.41 260.70 120.96 260.63 C 107.62 260.48 94.27 261.00 80.95 260.25 C 58.57 261.37 36.16 260.09 13.78 260.14 C 12.25 259.87 10.73 259.59 9.21 259.28 C 12.46 257.90 15.85 256.85 19.29 256.05 Z" />
</svg>
